<svg width="38" height="39" viewBox="0 0 38 39" fill="none" xmlns="http://www.w3.org/2000/svg">
<path d="M19 39C8.51833 39 0 30.2575 0 19.5C0 8.7425 8.51833 0 19 0C29.4817 0 38 8.7425 38 19.5C38 30.2575 29.4817 39 19 39ZM19 1.625C9.405 1.625 1.58333 9.6525 1.58333 19.5C1.58333 29.3475 9.405 37.375 19 37.375C28.595 37.375 36.4167 29.3475 36.4167 19.5C36.4167 9.6525 28.595 1.625 19 1.625Z" fill="white"/>
<path d="M19 39C12.8884 39 8.10669 30.42 8.10669 19.5C8.10669 8.58 12.8884 0 19 0C25.1117 0 29.8934 8.58 29.8934 19.5C29.8934 30.42 25.1117 39 19 39ZM19 1.625C13.87 1.625 9.65836 9.6525 9.65836 19.5C9.65836 29.3475 13.8384 37.375 19 37.375C24.1617 37.375 28.3417 29.3475 28.3417 19.5C28.3417 9.6525 24.13 1.625 19 1.625Z" fill="white"/>
<path d="M3.86335 8.32H34.1367V9.945H3.86335V8.32ZM3.86335 29.0875H34.1367V30.7125H3.86335V29.0875ZM0.791687 18.6875H37.2084V20.3125H0.791687V18.6875Z" fill="white"/>
<path d="M18.2083 0.8125H19.7916V38.1875H18.2083V0.8125Z" fill="white"/>
</svg>
