<svg width="43" height="43" viewBox="0 0 43 43" fill="none" xmlns="http://www.w3.org/2000/svg">
<path d="M21.5 43C33.368 43 43 33.368 43 21.5C43 9.632 33.368 2.97264e-06 21.5 1.93511e-06C9.632 8.97574e-07 2.91712e-06 9.632 1.87959e-06 21.5C8.42056e-07 33.368 9.632 43 21.5 43ZM10.2125 20.7905C10.2125 19.909 10.9435 19.178 11.825 19.178C12.7065 19.178 13.4375 19.909 13.4375 20.7905L13.4375 27.2835L30.0355 10.6855C30.358 10.363 30.7665 10.2125 31.175 10.2125C31.5835 10.2125 31.992 10.363 32.3145 10.6855C32.938 11.309 32.938 12.341 32.3145 12.9645L15.7165 29.5625L22.2095 29.5625C23.091 29.5625 23.822 30.2935 23.822 31.175C23.822 32.0565 23.091 32.7875 22.2095 32.7875L11.825 32.7875C10.9435 32.7875 10.2125 32.0565 10.2125 31.175L10.2125 20.7905Z" fill="#F74F1A"/>
</svg>
