<svg width="176" height="180" viewBox="0 0 176 180" fill="none" xmlns="http://www.w3.org/2000/svg">
<path d="M175.422 90C175.422 139.706 136.152 180 87.711 180C39.2695 180 0 139.706 0 90C0 40.2944 39.2695 0 87.711 0C136.152 0 175.422 40.2944 175.422 90ZM19.2811 90C19.2811 128.779 49.9182 160.216 87.711 160.216C125.504 160.216 156.141 128.779 156.141 90C156.141 51.221 125.504 19.7843 87.711 19.7843C49.9182 19.7843 19.2811 51.221 19.2811 90Z" fill="#F94C10"/>
<path d="M55.611 162.719C53.3656 167.806 47.3444 170.103 42.6085 167.19C27.1823 157.7 14.896 143.52 7.53618 126.498C0.120228 109.347 -1.85395 90.3265 1.75267 72.0964C2.80832 66.7606 8.4204 63.9057 13.5871 65.606C18.6454 67.2707 21.3593 72.6854 20.4647 77.9349C18.1447 91.5492 19.7914 105.643 25.3102 118.407C30.7863 131.072 39.7667 141.716 51.0364 149.081C55.5651 152.041 57.7957 157.77 55.611 162.719Z" fill="#5B93FF"/>
<path d="M87.7108 10.0794C87.7108 4.51269 92.239 -0.0612003 97.767 0.59346C108.158 1.82396 118.278 4.95504 127.639 9.86593C140 16.3505 150.684 25.7532 158.813 37.3007C166.942 48.8482 172.283 62.2107 174.398 76.2894C176.513 90.3681 175.341 104.761 170.978 118.284C166.615 131.807 159.186 144.075 149.302 154.078C139.418 164.081 127.361 171.533 114.123 175.823C100.884 180.112 86.8428 181.116 73.1527 178.752C62.6485 176.937 52.5814 173.18 43.4323 167.69C38.7857 164.902 37.9115 158.722 41.0913 154.334C44.384 149.79 50.7482 148.925 55.6703 151.619C62.138 155.16 69.1408 157.616 76.4136 158.873C87.0373 160.707 97.9337 159.928 108.207 156.6C118.48 153.271 127.836 147.488 135.506 139.725C143.177 131.963 148.942 122.443 152.327 111.949C155.713 101.455 156.623 90.2857 154.981 79.3604C153.34 68.4351 149.195 58.0656 142.887 49.1046C136.579 40.1436 128.288 32.847 118.695 27.8148C112.105 24.3572 105.029 22.0366 97.7516 20.9228C92.249 20.0807 87.7108 15.646 87.7108 10.0794Z" fill="#191D88"/>
</svg>
