<svg width="100" height="100" viewBox="0 0 100 100" fill="none" xmlns="http://www.w3.org/2000/svg">
<path d="M10.989 37.2H20.141V82H10.989V37.2ZM16.557 44.944V37.2H25.453C28.9943 37.2 32.0023 37.776 34.477 38.928C36.9943 40.08 38.9143 41.7227 40.237 43.856C41.5597 45.9893 42.221 48.528 42.221 51.472C42.221 54.3733 41.5597 56.912 40.237 59.088C38.9143 61.2213 36.9943 62.864 34.477 64.016C32.0023 65.168 28.9943 65.744 25.453 65.744H16.557V58H25.453C27.885 58 29.805 57.4453 31.213 56.336C32.621 55.2267 33.325 53.6053 33.325 51.472C33.325 49.296 32.621 47.6747 31.213 46.608C29.805 45.4987 27.885 44.944 25.453 44.944H16.557Z" fill="black"/>
<path d="M59.1575 56.848L56.2775 82H46.7415L53.3975 34.96L72.1495 63.888L90.9015 34.96L97.5575 82H88.0215L85.1415 56.848L72.1495 77.84L59.1575 56.848Z" fill="black"/>
</svg>
