<svg width="8" height="7" viewBox="0 0 8 7" fill="none" xmlns="http://www.w3.org/2000/svg">
<path opacity="0.5" d="M3.24592 6.58792C3.20725 6.54927 3.04193 6.40333 2.90593 6.26739C2.05062 5.47039 0.650651 3.39125 0.223328 2.30304C0.154663 2.13778 0.00933311 1.71995 0 1.49671C0 1.2828 0.0479988 1.07888 0.14533 0.884298C0.281326 0.641733 0.495321 0.447147 0.747982 0.340525C0.923311 0.271887 1.44796 0.165264 1.4573 0.165264C2.03128 0.0586422 2.96393 0 3.99457 0C4.97655 0 5.87119 0.0586422 6.45384 0.145939C6.46318 0.155935 7.11516 0.262557 7.33849 0.379175C7.74648 0.593086 7.9998 1.01091 7.9998 1.45806V1.49671C7.9898 1.78792 7.73648 2.40033 7.72714 2.40033C7.29915 3.4299 5.96785 5.46106 5.08321 6.27738C5.08321 6.27738 4.85588 6.50729 4.71388 6.60725C4.50989 6.76318 4.25723 6.84048 4.00457 6.84048C3.72258 6.84048 3.45992 6.75319 3.24592 6.58792Z" fill="#030229"/>
</svg>
