<svg width="436" height="101" viewBox="0 0 436 101" fill="none" xmlns="http://www.w3.org/2000/svg">
<g filter="url(#filter0_d_97_11587)">
<path d="M0 22C0 9.84974 9.84974 0 22 0H414C426.15 0 436 9.84974 436 22V50.5V79C436 91.1503 426.15 101 414 101H22C9.84974 101 0 91.1503 0 79V22Z" fill="white"/>
<path d="M0 22C0 9.84974 9.84974 0 22 0H414C426.15 0 436 9.84974 436 22V50.5V79C436 91.1503 426.15 101 414 101H22C9.84974 101 0 91.1503 0 79V22Z" fill="white"/>
</g>
<defs>
<filter id="filter0_d_97_11587" x="-4" y="0" width="444" height="109" filterUnits="userSpaceOnUse" color-interpolation-filters="sRGB">
<feFlood flood-opacity="0" result="BackgroundImageFix"/>
<feColorMatrix in="SourceAlpha" type="matrix" values="0 0 0 0 0 0 0 0 0 0 0 0 0 0 0 0 0 0 127 0" result="hardAlpha"/>
<feOffset dy="4"/>
<feGaussianBlur stdDeviation="2"/>
<feComposite in2="hardAlpha" operator="out"/>
<feColorMatrix type="matrix" values="0 0 0 0 0 0 0 0 0 0 0 0 0 0 0 0 0 0 0.25 0"/>
<feBlend mode="normal" in2="BackgroundImageFix" result="effect1_dropShadow_97_11587"/>
<feBlend mode="normal" in="SourceGraphic" in2="effect1_dropShadow_97_11587" result="shape"/>
</filter>
</defs>
</svg>
