<svg width="43" height="43" viewBox="0 0 43 43" fill="none" xmlns="http://www.w3.org/2000/svg">
<path d="M21.5 0C9.632 0 0 9.632 0 21.5C0 33.368 9.632 43 21.5 43C33.368 43 43 33.368 43 21.5C43 9.632 33.368 0 21.5 0ZM32.7875 22.2095C32.7875 23.091 32.0565 23.822 31.175 23.822C30.2935 23.822 29.5625 23.091 29.5625 22.2095V15.7165L12.9645 32.3145C12.642 32.637 12.2335 32.7875 11.825 32.7875C11.4165 32.7875 11.008 32.637 10.6855 32.3145C10.062 31.691 10.062 30.659 10.6855 30.0355L27.2835 13.4375H20.7905C19.909 13.4375 19.178 12.7065 19.178 11.825C19.178 10.9435 19.909 10.2125 20.7905 10.2125H31.175C32.0565 10.2125 32.7875 10.9435 32.7875 11.825V22.2095Z" fill="#1ECB4F"/>
</svg>
