<svg width="18" height="17" viewBox="0 0 18 17" fill="none" xmlns="http://www.w3.org/2000/svg">
<path fill-rule="evenodd" clip-rule="evenodd" d="M6.71104 7.8455C6.33917 7.8455 6.04513 8.1345 6.04513 8.5C6.04513 8.857 6.33917 9.1545 6.71104 9.1545H11.9V13.2175C11.9 15.3 10.179 17 8.05152 17H3.83982C1.721 17 0 15.3085 0 13.226V3.7825C0 1.6915 1.72965 0 3.84847 0H8.06882C10.179 0 11.9 1.6915 11.9 3.774V7.8455H6.71104ZM14.9857 5.55917L17.4677 8.03267C17.5952 8.16017 17.6632 8.32167 17.6632 8.50017C17.6632 8.67017 17.5952 8.84017 17.4677 8.95917L14.9857 11.4327C14.8582 11.5602 14.6882 11.6282 14.5267 11.6282C14.3567 11.6282 14.1867 11.5602 14.0592 11.4327C13.8042 11.1777 13.8042 10.7612 14.0592 10.5062L15.4192 9.15467H11.9002V7.84567H15.4192L14.0592 6.49417C13.8042 6.23917 13.8042 5.82267 14.0592 5.56767C14.3142 5.30417 14.7307 5.30417 14.9857 5.55917Z" fill="#030229"/>
</svg>
