<svg width="18" height="5" viewBox="0 0 18 5" fill="none" xmlns="http://www.w3.org/2000/svg">
<g opacity="0.5">
<path d="M8.99998 3.05441C9.55204 3.05441 9.99957 2.5952 9.99957 2.02873C9.99957 1.46226 9.55204 1.00305 8.99998 1.00305C8.44791 1.00305 8.00038 1.46226 8.00038 2.02873C8.00038 2.5952 8.44791 3.05441 8.99998 3.05441Z" stroke="#030229" stroke-width="2" stroke-linecap="round" stroke-linejoin="round"/>
<path d="M15.9973 3.05441C16.5494 3.05441 16.9969 2.5952 16.9969 2.02873C16.9969 1.46226 16.5494 1.00305 15.9973 1.00305C15.4452 1.00305 14.9977 1.46226 14.9977 2.02873C14.9977 2.5952 15.4452 3.05441 15.9973 3.05441Z" stroke="#030229" stroke-width="2" stroke-linecap="round" stroke-linejoin="round"/>
<path d="M2.00264 3.05441C2.5547 3.05441 3.00224 2.5952 3.00224 2.02873C3.00224 1.46226 2.5547 1.00305 2.00264 1.00305C1.45058 1.00305 1.00305 1.46226 1.00305 2.02873C1.00305 2.5952 1.45058 3.05441 2.00264 3.05441Z" stroke="#030229" stroke-width="2" stroke-linecap="round" stroke-linejoin="round"/>
</g>
</svg>
