<svg width="43" height="43" viewBox="0 0 43 43" fill="none" xmlns="http://www.w3.org/2000/svg">
<path d="M22.5494 0.0260528C10.6957 -0.553191 0.605307 8.59703 0.0260627 20.4506C-0.553181 32.3043 8.59704 42.3947 20.4507 42.9739C32.3043 43.5532 42.3947 34.403 42.974 22.5494C43.5532 10.6957 34.403 0.605297 22.5494 0.0260528ZM32.7392 22.7596C32.6962 23.64 31.9304 24.3344 31.05 24.2914C30.1695 24.2484 29.4751 23.4826 29.5181 22.6021L29.835 16.117L12.447 31.8848C12.1092 32.1912 11.6938 32.3216 11.2858 32.3016C10.8778 32.2817 10.4772 32.1114 10.1708 31.7736C9.57848 31.1204 9.62885 30.0896 10.282 29.4973L27.67 13.7295L21.1849 13.4126C20.3044 13.3696 19.61 12.6038 19.653 11.7234C19.6961 10.843 20.4619 10.1485 21.3423 10.1915L31.7142 10.6984C32.5946 10.7414 33.2891 11.5072 33.246 12.3876L32.7392 22.7596Z" fill="#1ECB4F"/>
</svg>
