<svg width="23" height="23" viewBox="0 0 23 23" fill="none" xmlns="http://www.w3.org/2000/svg">
<rect width="22" height="22" transform="translate(0.180309) scale(1.03728) rotate(0.453211)" fill="white"/>
<path fill-rule="evenodd" clip-rule="evenodd" d="M17.1886 2.74943C16.2228 2.74179 15.4425 3.50983 15.4349 4.47566C15.4275 5.40548 16.1367 6.16051 17.0415 6.22639C17.1175 6.22025 17.1953 6.22086 17.2712 6.2282C18.1753 6.17669 18.8995 5.43396 18.9149 4.50064C18.921 3.54367 18.1518 2.75705 17.1886 2.74943ZM14.0086 4.46438C14.0225 2.71088 15.4464 1.30935 17.1999 1.32322C18.9552 1.3371 20.3548 2.77228 20.341 4.51447L20.341 4.51956L20.341 4.51956C20.3152 6.2299 18.9579 7.608 17.2612 7.65604C17.2224 7.65714 17.1835 7.65506 17.1451 7.64985C17.1066 7.65446 17.0677 7.65592 17.0289 7.6542C15.3341 7.57937 13.9951 6.17967 14.0086 4.46438Z" fill="#9D9FC9"/>
<path fill-rule="evenodd" clip-rule="evenodd" d="M16.0975 8.54231C17.545 8.30051 19.1914 8.55498 20.3833 9.35956L20.3846 9.36042C21.1993 9.91291 21.6971 10.7081 21.6901 11.5901C21.6831 12.4722 21.1728 13.2594 20.3495 13.7989C19.1538 14.5855 17.5234 14.8132 16.0834 14.5597C15.6955 14.4914 15.4364 14.1216 15.5047 13.7337C15.573 13.3458 15.9428 13.0868 16.3307 13.155C17.4919 13.3594 18.7359 13.1537 19.5665 12.6068L19.5678 12.6059C20.0922 12.2623 20.2615 11.8758 20.2639 11.5788C20.2662 11.282 20.1031 10.8931 19.5848 10.5413C18.7527 9.97994 17.4935 9.75514 16.3325 9.94908C15.944 10.014 15.5765 9.75166 15.5116 9.36319C15.4467 8.97472 15.709 8.6072 16.0975 8.54231Z" fill="#9D9FC9"/>
<path fill-rule="evenodd" clip-rule="evenodd" d="M2.74188 4.37525C2.75566 2.63306 4.17783 1.22021 5.93313 1.23409C7.68664 1.24796 9.08816 2.67184 9.07429 4.42534C9.06072 6.14064 7.69973 7.51898 6.00395 7.56699C5.96513 7.56809 5.9263 7.56602 5.88784 7.5608C5.84931 7.56541 5.81045 7.56687 5.77165 7.56515C4.07595 7.49028 2.74055 6.09088 2.74186 4.38035L2.74188 4.37525ZM4.16812 4.384C4.1687 5.31744 4.88103 6.07153 5.78428 6.13734C5.86027 6.1312 5.93803 6.13181 6.01392 6.13916C6.91965 6.0876 7.64072 5.34388 7.64807 4.41406C7.65571 3.44824 6.88767 2.66795 5.92185 2.66031C4.95868 2.65269 4.17706 3.42705 4.16812 4.384Z" fill="#9D9FC9"/>
<path fill-rule="evenodd" clip-rule="evenodd" d="M3.40287 10.4133C4.24375 9.86516 5.50632 9.66032 6.66411 9.8726C7.0515 9.94363 7.42313 9.68716 7.49415 9.29977C7.56518 8.91237 7.30871 8.54075 6.92132 8.46972C5.47779 8.20506 3.82762 8.43345 2.62307 9.21907L2.62307 9.21907L2.62179 9.21991C1.79845 9.75945 1.28818 10.5466 1.2812 11.4287C1.27422 12.3105 1.77172 13.1055 2.58603 13.6579C3.76917 14.4637 5.39615 14.7173 6.84022 14.4866C7.22914 14.4244 7.49405 14.0588 7.43191 13.6699C7.36978 13.281 7.00413 13.016 6.61521 13.0782C5.45086 13.2642 4.21032 13.0388 3.38847 12.4788L3.38719 12.4779C2.86831 12.1261 2.70507 11.7369 2.70742 11.44C2.70977 11.1431 2.879 10.7568 3.40287 10.4133Z" fill="#9D9FC9"/>
<path fill-rule="evenodd" clip-rule="evenodd" d="M11.4278 9.80687C10.462 9.79923 9.68174 10.5673 9.6741 11.5331C9.66675 12.4629 10.376 13.218 11.2808 13.2838C11.3578 13.2776 11.4367 13.2783 11.5136 13.286C12.4104 13.2417 13.1387 12.4964 13.1541 11.5581C13.1603 10.6011 12.391 9.81449 11.4278 9.80687ZM8.24788 11.5218C8.26175 9.76832 9.68563 8.36679 11.4391 8.38066C13.1944 8.39454 14.5941 9.82972 14.5803 11.5719L14.5803 11.577L14.5802 11.577C14.5546 13.2827 13.2005 14.6777 11.4953 14.7136C11.4582 14.7144 11.4211 14.7123 11.3843 14.7073C11.3458 14.7119 11.3069 14.7134 11.2681 14.7116C9.57334 14.6368 8.23432 13.2371 8.24788 11.5218Z" fill="#9D9FC9"/>
<path fill-rule="evenodd" clip-rule="evenodd" d="M11.4714 15.5267C12.5825 15.5355 13.7296 15.8213 14.6234 16.4274C15.4381 16.9798 15.9358 17.775 15.9288 18.6571C15.9219 19.539 15.4117 20.3261 14.5886 20.8656C13.6815 21.4617 12.5303 21.7324 11.4188 21.7236C10.3073 21.7148 9.1606 21.4259 8.26309 20.8156C7.44858 20.2631 6.95095 19.468 6.95792 18.5861C6.9649 17.7041 7.47517 16.9169 8.29851 16.3773L8.30023 16.3762L8.30023 16.3762C9.20726 15.7856 10.3602 15.5179 11.4714 15.5267ZM9.0794 17.5708C8.55568 17.9143 8.38649 18.3006 8.38414 18.5974C8.38179 18.8943 8.54503 19.2835 9.06391 19.6354L9.06476 19.6359C9.68042 20.0547 10.5356 20.2903 11.4301 20.2974C12.3246 20.3045 13.1834 20.0825 13.8057 19.6734L13.8065 19.6729C14.3309 19.3293 14.5003 18.9427 14.5026 18.6458C14.505 18.3488 14.3417 17.9597 13.8228 17.6078C13.2128 17.1941 12.3577 16.96 11.4601 16.9529C10.5632 16.9458 9.70157 17.166 9.0794 17.5708Z" fill="#9D9FC9"/>
</svg>
