<svg width="24" height="24" viewBox="0 0 24 24" fill="none" xmlns="http://www.w3.org/2000/svg">
<g opacity="0.4">
<path fill-rule="evenodd" clip-rule="evenodd" d="M20.4023 13.5801C20.76 13.7701 21.036 14.0701 21.2301 14.3701C21.6083 14.9901 21.5776 15.7501 21.2097 16.4201L20.4943 17.6201C20.1162 18.2601 19.411 18.6601 18.6855 18.6601C18.3278 18.6601 17.9292 18.5601 17.6022 18.3601C17.3365 18.1901 17.0299 18.1301 16.7029 18.1301C15.6911 18.1301 14.8429 18.9601 14.8122 19.9501C14.8122 21.1001 13.872 22.0001 12.6968 22.0001H11.3069C10.1215 22.0001 9.18125 21.1001 9.18125 19.9501C9.16081 18.9601 8.31259 18.1301 7.30085 18.1301C6.96361 18.1301 6.65702 18.1901 6.40153 18.3601C6.0745 18.5601 5.66572 18.6601 5.31825 18.6601C4.58245 18.6601 3.87729 18.2601 3.49917 17.6201L2.79402 16.4201C2.4159 15.7701 2.39546 14.9901 2.77358 14.3701C2.93709 14.0701 3.24368 13.7701 3.59115 13.5801C3.87729 13.4401 4.06125 13.2101 4.23498 12.9401C4.74596 12.0801 4.43937 10.9501 3.57071 10.4401C2.55897 9.8701 2.23194 8.6001 2.81446 7.6101L3.49917 6.4301C4.09191 5.4401 5.35913 5.0901 6.38109 5.6701C7.27019 6.1501 8.425 5.8301 8.9462 4.9801C9.10972 4.7001 9.20169 4.4001 9.18125 4.1001C9.16081 3.7101 9.27323 3.3401 9.4674 3.0401C9.84553 2.4201 10.5302 2.0201 11.2763 2.0001H12.7172C13.4735 2.0001 14.1582 2.4201 14.5363 3.0401C14.7203 3.3401 14.8429 3.7101 14.8122 4.1001C14.7918 4.4001 14.8838 4.7001 15.0473 4.9801C15.5685 5.8301 16.7233 6.1501 17.6226 5.6701C18.6344 5.0901 19.9118 5.4401 20.4943 6.4301L21.179 7.6101C21.7718 8.6001 21.4447 9.8701 20.4228 10.4401C19.5541 10.9501 19.2475 12.0801 19.7687 12.9401C19.9322 13.2101 20.1162 13.4401 20.4023 13.5801ZM9.10972 12.0101C9.10972 13.5801 10.4076 14.8301 12.0121 14.8301C13.6165 14.8301 14.8838 13.5801 14.8838 12.0101C14.8838 10.4401 13.6165 9.1801 12.0121 9.1801C10.4076 9.1801 9.10972 10.4401 9.10972 12.0101Z" fill="#191D88"/>
</g>
</svg>
