<svg width="24" height="14" viewBox="0 0 24 14" fill="none" xmlns="http://www.w3.org/2000/svg">
<path d="M0.279588 13.4843C0.388154 13.588 0.515452 13.658 0.649405 13.6948C0.952892 13.7783 1.29024 13.6911 1.51919 13.4387L7.54657 6.7944C7.87088 6.43685 8.39368 6.34191 8.81774 6.56364L13.2967 8.90396C14.3042 9.43025 15.5165 9.29127 16.3856 8.54995L22.0527 3.71675L21.6269 8.66344C21.5889 9.10539 21.8689 9.50087 22.2726 9.61181C22.3211 9.62516 22.3716 9.63444 22.4235 9.63912C22.906 9.68285 23.3317 9.3169 23.3743 8.82181L23.9964 1.59312C24.0169 1.35535 23.9445 1.11897 23.795 0.935999C23.6457 0.753001 23.4316 0.63838 23.1999 0.617438L16.4245 0.00354414C15.942 -0.040187 15.5163 0.325759 15.4737 0.820851C15.4311 1.316 15.7878 1.75271 16.2703 1.79653L21.0518 2.2298L15.2643 7.16567C14.9346 7.44689 14.4749 7.49968 14.0927 7.29999L9.61373 4.95966C8.49584 4.37548 7.11752 4.62555 6.26259 5.56799L0.235195 12.2124C-0.0948321 12.5761 -0.0749964 13.1456 0.279588 13.4843Z" fill="#5B93FF"/>
</svg>
