<svg width="360" height="56" viewBox="0 0 360 56" fill="none" xmlns="http://www.w3.org/2000/svg">
<path d="M0 12.8C0 8.31958 0 6.07937 0.871948 4.36808C1.63893 2.86278 2.86278 1.63893 4.36808 0.871948C6.07937 0 8.31958 0 12.8 0H347.2C351.68 0 353.921 0 355.632 0.871948C357.137 1.63893 358.361 2.86278 359.128 4.36808C360 6.07937 360 8.31958 360 12.8V42.2176C360 46.698 360 48.9382 359.128 50.6495C358.361 52.1548 357.137 53.3786 355.632 54.1456C353.921 55.0175 351.68 55.0175 347.2 55.0175H12.8C8.31958 55.0175 6.07937 55.0175 4.36808 54.1456C2.86278 53.3786 1.63893 52.1548 0.871948 50.6495C0 48.9382 0 46.698 0 42.2175V12.8Z" fill="black"/>
</svg>
