<svg width="44" height="46" viewBox="0 0 44 46" fill="none" xmlns="http://www.w3.org/2000/svg">
<path fill-rule="evenodd" clip-rule="evenodd" d="M34.8333 24.9167H31.1667V28.0876L22 33.2786L12.8333 28.0876V17.9124L22 12.7215L31.1667 17.9124V21.0833H34.8333V15.6292L22 8.36189L9.16666 15.6292V30.3708L22 37.6381L34.8333 30.3708V24.9167ZM22 28.75C18.9624 28.75 16.5 26.1756 16.5 23C16.5 19.8244 18.9624 17.25 22 17.25C25.0376 17.25 27.5 19.8244 27.5 23C27.5 26.1756 25.0376 28.75 22 28.75ZM20.1667 21.0833V24.9167H23.8333V21.0833H20.1667Z" fill="white"/>
</svg>
