<svg width="43" height="43" viewBox="0 0 43 43" fill="none" xmlns="http://www.w3.org/2000/svg">
<path d="M21.5371 43C33.4051 42.9795 43.0205 33.3309 43 21.4629C42.9795 9.59489 33.3308 -0.0204584 21.4629 3.55089e-05C9.59489 0.0205294 -0.0204623 9.66915 3.16059e-05 21.5371C0.0205255 33.4051 9.66914 43.0205 21.5371 43ZM10.2113 20.81C10.2098 19.9285 10.9395 19.1962 11.821 19.1947C12.7025 19.1932 13.4348 19.9229 13.4363 20.8044L13.4475 27.2974L30.0168 10.6708C30.3387 10.3477 30.747 10.1965 31.1555 10.1958C31.564 10.1951 31.9727 10.3449 32.2958 10.6668C32.9204 11.2893 32.9222 12.3213 32.2997 12.9458L15.7304 29.5725L22.2234 29.5613C23.1049 29.5597 23.8372 30.2895 23.8387 31.171C23.8402 32.0525 23.1105 32.7847 22.229 32.7863L11.8445 32.8042C10.963 32.8057 10.2307 32.076 10.2292 31.1945L10.2113 20.81Z" fill="#F74F1A"/>
</svg>
