<svg width="24" height="75" viewBox="0 0 24 75" fill="none" xmlns="http://www.w3.org/2000/svg">
<g opacity="0.4">
<path fill-rule="evenodd" clip-rule="evenodd" d="M21.7872 65.539C21.6518 65.6706 21.4681 65.7457 21.2747 65.7457C20.559 65.7457 19.9787 66.3095 19.9787 66.9953C19.9787 67.6858 20.5522 68.2467 21.2611 68.2543C21.6605 68.258 22 68.5286 22 68.9166V71.3265C22 73.3549 20.3075 75 18.2186 75H15.0658C14.7398 75 14.4758 74.7435 14.4758 74.4269V72.3975C14.4758 72.0029 14.1567 71.6929 13.7505 71.6929C13.354 71.6929 13.0251 72.0029 13.0251 72.3975V74.4269C13.0251 74.7435 12.7611 75 12.4362 75H5.78143C3.70213 75 2 73.3558 2 71.3265V68.9166C2 68.5286 2.33946 68.258 2.73888 68.2543C3.44874 68.2467 4.02128 67.6858 4.02128 66.9953C4.02128 66.3282 3.46035 65.8209 2.72534 65.8209C2.53191 65.8209 2.34816 65.7457 2.21277 65.6142C2.07737 65.4827 2 65.3042 2 65.1163V62.6829C2 60.6573 3.706 59 5.7911 59H12.4362C12.7611 59 13.0251 59.2565 13.0251 59.5731V61.9783C13.0251 62.3635 13.354 62.6829 13.7505 62.6829C14.1567 62.6829 14.4758 62.3635 14.4758 61.9783V59.5731C14.4758 59.2565 14.7398 59 15.0658 59H18.2186C20.3075 59 22 60.6442 22 62.6735V65.0411C22 65.229 21.9226 65.4075 21.7872 65.539ZM13.7505 69.8702C14.1567 69.8702 14.4758 69.5508 14.4758 69.1656V65.4075C14.4758 65.0223 14.1567 64.7029 13.7505 64.7029C13.354 64.7029 13.0251 65.0223 13.0251 65.4075V69.1656C13.0251 69.5508 13.354 69.8702 13.7505 69.8702Z" fill="#191D88"/>
</g>
</svg>
