<svg width="6" height="6" viewBox="0 0 6 6" fill="none" xmlns="http://www.w3.org/2000/svg">
<path opacity="0.2" d="M2.43444 4.94094C2.40544 4.91195 2.28144 4.8025 2.17945 4.70054C1.53796 4.10279 0.487988 2.54344 0.167496 1.72728C0.115997 1.60333 0.00699983 1.28996 0 1.12253C0 0.962099 0.0359991 0.809163 0.108997 0.663224C0.210995 0.481299 0.371491 0.33536 0.560986 0.255394C0.692483 0.203915 1.08597 0.123948 1.09297 0.123948C1.52346 0.0439817 2.22295 0 2.99593 0C3.73241 0 4.40339 0.0439817 4.84038 0.109454C4.84738 0.116951 5.33637 0.196918 5.50387 0.284381C5.80986 0.444815 5.99985 0.758184 5.99985 1.09354V1.12253C5.99235 1.34094 5.80236 1.80025 5.79536 1.80025C5.47437 2.57243 4.47589 4.09579 3.81241 4.70804C3.81241 4.70804 3.64191 4.88047 3.53541 4.95544C3.38242 5.07239 3.19292 5.13036 3.00343 5.13036C2.79193 5.13036 2.59494 5.06489 2.43444 4.94094Z" fill="#030229"/>
</svg>
