<svg width="344" height="162" viewBox="0 0 344 162" fill="none" xmlns="http://www.w3.org/2000/svg">
<path d="M0.0357351 160.299L13.8178 161.284" stroke="#060606" stroke-opacity="0.3" stroke-miterlimit="10"/>
<path d="M0.859189 151.569L14.5757 153.255" stroke="#060606" stroke-opacity="0.3" stroke-miterlimit="10"/>
<path d="M2.13095 142.891L15.7361 145.267" stroke="#060606" stroke-opacity="0.3" stroke-miterlimit="10"/>
<path d="M3.82826 134.287L17.2988 137.363" stroke="#060606" stroke-opacity="0.3" stroke-miterlimit="10"/>
<path d="M5.97388 125.792L19.2757 129.534" stroke="#060606" stroke-opacity="0.3" stroke-miterlimit="10"/>
<path d="M8.54483 117.404L21.6433 121.824" stroke="#060606" stroke-opacity="0.3" stroke-miterlimit="10"/>
<path d="M11.5483 109.16L24.386 114.244" stroke="#060606" stroke-opacity="0.3" stroke-miterlimit="10"/>
<path d="M14.9579 101.082L27.5349 106.819" stroke="#060606" stroke-opacity="0.3" stroke-miterlimit="10"/>
<path d="M18.7765 93.191L31.0355 99.5582" stroke="#060606" stroke-opacity="0.3" stroke-miterlimit="10"/>
<path d="M22.997 85.5016L34.9151 92.4867" stroke="#060606" stroke-opacity="0.3" stroke-miterlimit="10"/>
<path d="M27.5957 78.0347L39.1502 85.6145" stroke="#060606" stroke-opacity="0.3" stroke-miterlimit="10"/>
<path d="M32.5687 70.8142L43.7252 78.9766" stroke="#060606" stroke-opacity="0.3" stroke-miterlimit="10"/>
<path d="M37.908 63.863L48.6323 72.5732" stroke="#060606" stroke-opacity="0.3" stroke-miterlimit="10"/>
<path d="M43.602 57.1816L53.8597 66.4276" stroke="#060606" stroke-opacity="0.3" stroke-miterlimit="10"/>
<path d="M49.616 50.8007L59.3958 60.5594" stroke="#060606" stroke-opacity="0.3" stroke-miterlimit="10"/>
<path d="M55.9494 44.7362L65.2171 54.9843" stroke="#060606" stroke-opacity="0.3" stroke-miterlimit="10"/>
<path d="M62.5867 39.0094L71.3197 49.7119" stroke="#060606" stroke-opacity="0.3" stroke-miterlimit="10"/>
<path d="M69.5086 33.6183L77.684 44.7521" stroke="#060606" stroke-opacity="0.3" stroke-miterlimit="10"/>
<path d="M91.7861 19.6625L98.1758 31.9159" stroke="#060606" stroke-opacity="0.3" stroke-miterlimit="10"/>
<path d="M99.6583 15.7898L105.411 28.347" stroke="#060606" stroke-opacity="0.3" stroke-miterlimit="10"/>
<path d="M107.71 12.3233L112.815 25.1609" stroke="#060606" stroke-opacity="0.3" stroke-miterlimit="10"/>
<path d="M115.933 9.26246L120.379 22.3459" stroke="#060606" stroke-opacity="0.3" stroke-miterlimit="10"/>
<path d="M124.295 6.63854L128.071 19.9217" stroke="#060606" stroke-opacity="0.3" stroke-miterlimit="10"/>
<path d="M132.783 4.43239L135.877 17.8921" stroke="#060606" stroke-opacity="0.3" stroke-miterlimit="10"/>
<path d="M141.371 2.66334L143.773 16.2648" stroke="#060606" stroke-opacity="0.3" stroke-miterlimit="10"/>
<path d="M150.045 1.33519L151.743 15.0439" stroke="#060606" stroke-opacity="0.3" stroke-miterlimit="10"/>
<path d="M158.769 0.4537L159.776 14.2352" stroke="#060606" stroke-opacity="0.3" stroke-miterlimit="10"/>
<path d="M167.524 0.0110271L167.828 13.8191" stroke="#060606" stroke-opacity="0.3" stroke-miterlimit="10"/>
<path d="M176.298 0.0183644L175.889 13.8299" stroke="#060606" stroke-opacity="0.3" stroke-miterlimit="10"/>
<path d="M185.053 0.474859L183.942 14.2439" stroke="#060606" stroke-opacity="0.3" stroke-miterlimit="10"/>
<path d="M193.773 1.37999L191.972 15.0722" stroke="#060606" stroke-opacity="0.3" stroke-miterlimit="10"/>
<path d="M202.437 2.72035L199.946 16.3127" stroke="#060606" stroke-opacity="0.3" stroke-miterlimit="10"/>
<path d="M211.031 4.49941L207.839 17.9456" stroke="#060606" stroke-opacity="0.3" stroke-miterlimit="10"/>
<path d="M219.511 6.72493L215.642 19.9793" stroke="#060606" stroke-opacity="0.3" stroke-miterlimit="10"/>
<path d="M227.877 9.36248L223.331 22.4135" stroke="#060606" stroke-opacity="0.3" stroke-miterlimit="10"/>
<path d="M236.087 12.4387L230.888 25.2405" stroke="#060606" stroke-opacity="0.3" stroke-miterlimit="10"/>
<path d="M244.139 15.9245L238.287 28.4426" stroke="#060606" stroke-opacity="0.3" stroke-miterlimit="10"/>
<path d="M251.993 19.8141L245.523 32.0143" stroke="#060606" stroke-opacity="0.3" stroke-miterlimit="10"/>
<path d="M259.647 24.092L252.558 35.9514" stroke="#060606" stroke-opacity="0.3" stroke-miterlimit="10"/>
<path d="M281.156 39.2095L272.343 49.852" stroke="#060606" stroke-opacity="0.3" stroke-miterlimit="10"/>
<path d="M287.781 44.9482L278.444 55.1243" stroke="#060606" stroke-opacity="0.3" stroke-miterlimit="10"/>
<path d="M294.101 51.0303L284.263 60.7172" stroke="#060606" stroke-opacity="0.3" stroke-miterlimit="10"/>
<path d="M300.108 57.4187L289.78 66.5934" stroke="#060606" stroke-opacity="0.3" stroke-miterlimit="10"/>
<path d="M305.79 64.1036L295.008 72.7436" stroke="#060606" stroke-opacity="0.3" stroke-miterlimit="10"/>
<path d="M311.113 71.0711L299.911 79.1422" stroke="#060606" stroke-opacity="0.3" stroke-miterlimit="10"/>
<path d="M316.072 78.3002L304.474 85.7911" stroke="#060606" stroke-opacity="0.3" stroke-miterlimit="10"/>
<path d="M320.664 85.7674L308.693 92.6669" stroke="#060606" stroke-opacity="0.3" stroke-miterlimit="10"/>
<path d="M324.872 93.4703L312.563 99.7443" stroke="#060606" stroke-opacity="0.3" stroke-miterlimit="10"/>
<path d="M328.675 101.367L316.061 107.015" stroke="#060606" stroke-opacity="0.3" stroke-miterlimit="10"/>
<path d="M332.07 109.452L319.188 114.441" stroke="#060606" stroke-opacity="0.3" stroke-miterlimit="10"/>
<path d="M335.051 117.707L321.935 122.026" stroke="#060606" stroke-opacity="0.3" stroke-miterlimit="10"/>
<path d="M337.615 126.094L324.287 129.743" stroke="#060606" stroke-opacity="0.3" stroke-miterlimit="10"/>
<path d="M339.744 134.592L326.251 137.571" stroke="#060606" stroke-opacity="0.3" stroke-miterlimit="10"/>
<path d="M341.428 143.2L327.805 145.487" stroke="#060606" stroke-opacity="0.3" stroke-miterlimit="10"/>
<path d="M342.678 151.884L328.959 153.467" stroke="#060606" stroke-opacity="0.3" stroke-miterlimit="10"/>
<path d="M343.491 160.609L329.699 161.501" stroke="#060606" stroke-opacity="0.3" stroke-miterlimit="10"/>
</svg>
