<svg width="23" height="23" viewBox="0 0 23 23" fill="none" xmlns="http://www.w3.org/2000/svg">
<rect width="22" height="22" transform="translate(0.180562) scale(1.03728) rotate(0.453211)" fill="white"/>
<path fill-rule="evenodd" clip-rule="evenodd" d="M17.1889 2.74944C16.223 2.7418 15.4428 3.50984 15.4351 4.47566C15.4278 5.40548 16.137 6.16051 17.0418 6.22639C17.1178 6.22025 17.1955 6.22086 17.2714 6.22821C18.1756 6.1767 18.8998 5.43397 18.9151 4.50064C18.9213 3.54368 18.152 2.75705 17.1889 2.74944ZM14.0089 4.46438C14.0228 2.71088 15.4466 1.30935 17.2001 1.32322C18.9554 1.3371 20.3551 2.77228 20.3413 4.51447L20.3413 4.51956L20.3412 4.51956C20.3155 6.2299 18.9581 7.608 17.2615 7.65604C17.2226 7.65714 17.1838 7.65507 17.1453 7.64985C17.1068 7.65446 17.068 7.65592 17.0292 7.6542C15.3344 7.57937 13.9953 6.17967 14.0089 4.46438Z" fill="#A3A5CF"/>
<path fill-rule="evenodd" clip-rule="evenodd" d="M16.0977 8.54231C17.5453 8.30051 19.1916 8.55498 20.3836 9.35956L20.3849 9.36042C21.1996 9.91291 21.6973 10.7081 21.6904 11.5901C21.6834 12.4722 21.1731 13.2594 20.3498 13.7989C19.1541 14.5855 17.5236 14.8132 16.0837 14.5597C15.6958 14.4914 15.4367 14.1216 15.5049 13.7337C15.5732 13.3458 15.943 13.0868 16.3309 13.155C17.4922 13.3594 18.7361 13.1537 19.5667 12.6068L19.568 12.6059C20.0924 12.2623 20.2618 11.8758 20.2641 11.5788C20.2665 11.282 20.1034 10.8931 19.585 10.5413C18.7529 9.97994 17.4937 9.75515 16.3327 9.94908C15.9443 10.014 15.5767 9.75166 15.5118 9.36319C15.447 8.97472 15.7093 8.6072 16.0977 8.54231Z" fill="#A3A5CF"/>
<path fill-rule="evenodd" clip-rule="evenodd" d="M2.74163 4.37525C2.75541 2.63306 4.17758 1.22021 5.93288 1.23409C7.68638 1.24796 9.08791 2.67184 9.07404 4.42534C9.06047 6.14064 7.69947 7.51898 6.00369 7.56699C5.96487 7.56809 5.92604 7.56602 5.88759 7.5608C5.84906 7.56541 5.8102 7.56687 5.7714 7.56515C4.0757 7.49028 2.7403 6.09088 2.74161 4.38035L2.74163 4.37525ZM4.16787 4.384C4.16845 5.31744 4.88078 6.07153 5.78403 6.13734C5.86002 6.1312 5.93778 6.13181 6.01366 6.13916C6.9194 6.0876 7.64046 5.34388 7.64782 4.41406C7.65546 3.44824 6.88742 2.66795 5.9216 2.66031C4.95843 2.65269 4.17681 3.42705 4.16787 4.384Z" fill="#A3A5CF"/>
<path fill-rule="evenodd" clip-rule="evenodd" d="M3.40262 10.4133C4.24349 9.86517 5.50607 9.66033 6.66385 9.8726C7.05125 9.94363 7.42287 9.68716 7.4939 9.29977C7.56493 8.91238 7.30846 8.54075 6.92107 8.46973C5.47754 8.20506 3.82737 8.43345 2.62282 9.21907L2.62282 9.21907L2.62153 9.21992C1.7982 9.75945 1.28792 10.5466 1.28095 11.4287C1.27397 12.3105 1.77147 13.1055 2.58578 13.6579C3.76891 14.4637 5.39589 14.7173 6.83996 14.4866C7.22888 14.4244 7.4938 14.0588 7.43166 13.6699C7.36953 13.281 7.00388 13.016 6.61496 13.0782C5.4506 13.2642 4.21007 13.0388 3.38822 12.4788L3.38693 12.4779C2.86805 12.1261 2.70482 11.7369 2.70716 11.44C2.70951 11.1431 2.87875 10.7568 3.40262 10.4133Z" fill="#A3A5CF"/>
<path fill-rule="evenodd" clip-rule="evenodd" d="M11.4278 9.80688C10.462 9.79924 9.68174 10.5673 9.6741 11.5331C9.66675 12.4629 10.376 13.218 11.2808 13.2838C11.3578 13.2776 11.4367 13.2783 11.5136 13.286C12.4104 13.2417 13.1387 12.4964 13.1541 11.5581C13.1603 10.6011 12.391 9.81449 11.4278 9.80688ZM8.24788 11.5218C8.26175 9.76832 9.68563 8.36679 11.4391 8.38066C13.1944 8.39454 14.5941 9.82972 14.5803 11.5719L14.5803 11.577L14.5802 11.577C14.5546 13.2827 13.2005 14.6777 11.4953 14.7136C11.4582 14.7144 11.4211 14.7123 11.3843 14.7073C11.3458 14.7119 11.3069 14.7134 11.2681 14.7116C9.57334 14.6368 8.23432 13.2371 8.24788 11.5218Z" fill="#A3A5CF"/>
<path fill-rule="evenodd" clip-rule="evenodd" d="M11.4717 15.5267C12.5827 15.5355 13.7299 15.8213 14.6236 16.4274C15.4383 16.9799 15.9361 17.775 15.9291 18.6571C15.9221 19.539 15.412 20.3261 14.5888 20.8656C13.6818 21.4617 12.5306 21.7324 11.4191 21.7236C10.3076 21.7148 9.16086 21.4259 8.26334 20.8156C7.44883 20.2631 6.9512 19.468 6.95818 18.5861C6.96515 17.7041 7.47543 16.9169 8.29876 16.3773L8.30049 16.3762L8.30049 16.3762C9.20752 15.7856 10.3604 15.5179 11.4717 15.5267ZM9.07965 17.5708C8.55594 17.9143 8.38674 18.3006 8.38439 18.5974C8.38205 18.8943 8.54528 19.2835 9.06416 19.6354L9.06501 19.6359C9.68067 20.0547 10.5359 20.2903 11.4304 20.2974C12.3249 20.3045 13.1837 20.0825 13.8059 19.6734L13.8068 19.6729C14.3311 19.3293 14.5005 18.9427 14.5029 18.6458C14.5052 18.3488 14.342 17.9597 13.8231 17.6078C13.213 17.1941 12.358 16.96 11.4604 16.9529C10.5635 16.9458 9.70183 17.166 9.07965 17.5708Z" fill="#A3A5CF"/>
</svg>
