<svg width="15" height="14" viewBox="0 0 15 14" fill="none" xmlns="http://www.w3.org/2000/svg">
<mask id="mask0_41_87" style="mask-type:luminance" maskUnits="userSpaceOnUse" x="-2" y="-3" width="19" height="19">
<rect x="-1.50046" y="-2.24992" width="18.0001" height="18.0001" fill="white"/>
</mask>
<g mask="url(#mask0_41_87)">
<path fill-rule="evenodd" clip-rule="evenodd" d="M0.000750174 3.10707C0.000859162 1.39099 1.39192 0 3.10802 0H11.8921C13.6083 0 14.9984 1.39109 14.9986 3.10686M14.9986 3.10686L15.0001 5.13412C15.0002 5.28338 14.941 5.42656 14.8355 5.53214C14.73 5.63772 14.5868 5.69704 14.4376 5.69704C13.8179 5.69704 13.3201 6.19478 13.3201 6.8138C13.3201 7.43223 13.8181 7.93056 14.4376 7.93056C14.7483 7.93056 15.0001 8.1824 15.0001 8.49307V10.5181C15.0001 12.2341 13.6099 13.6254 11.8928 13.6254H3.10652C1.39013 13.6254 0 12.234 0 10.5181V8.49307C0 8.1824 0.251842 7.93056 0.562504 7.93056C1.1811 7.93056 1.67926 7.4324 1.67926 6.8138C1.67926 6.22349 1.21094 5.76229 0.562504 5.76229C0.413284 5.76229 0.270178 5.703 0.164682 5.59746C0.0591866 5.49193 -5.34657e-05 5.3488 4.47039e-08 5.19958L0.000750174 3.10707C0.000750174 3.107 0.000750174 3.10714 0.000750174 3.10707M1.12576 3.10727L1.12519 4.70446C2.07582 4.93621 2.80427 5.7469 2.80427 6.8138C2.80427 7.85939 2.09185 8.73569 1.12501 8.98468V10.5181C1.12501 11.6131 2.01189 12.5003 3.10652 12.5003H11.8928C12.9883 12.5003 13.8751 11.613 13.8751 10.5181V8.98476C12.9077 8.73588 12.1951 7.85962 12.1951 6.8138C12.1951 5.76737 12.9076 4.89173 13.8747 4.6429L13.8736 3.10769C13.8736 2.01262 12.9867 1.12501 11.8921 1.12501H3.10802C2.01317 1.12501 1.12576 2.01242 1.12576 3.10727ZM0.000750174 3.10707L14.9986 3.10686L0.000750174 3.10707Z" fill="#F94C10"/>
<path fill-rule="evenodd" clip-rule="evenodd" d="M8.15343 4.10162L8.67524 5.15841L9.8438 5.32835C10.438 5.4165 10.68 6.14778 10.2467 6.57131L10.2458 6.57217L9.40126 7.39391L9.60089 8.55632C9.70365 9.15633 9.07389 9.60204 8.54416 9.3258L8.54244 9.3249L7.49924 8.77632L6.45432 9.3258C5.92456 9.60206 5.2948 9.15655 5.39756 8.55658L5.59725 7.39379L4.75331 6.57202L4.75258 6.57131C4.31919 6.14777 4.56127 5.4165 5.15544 5.32835L5.15699 5.32812L6.32323 5.15843L6.84562 4.10046L6.84626 4.09916C7.11322 3.56199 7.88479 3.55581 8.15307 4.10088C8.15319 4.10112 8.15331 4.10137 8.15343 4.10162ZM7.20111 5.92155C7.11917 6.08749 6.96086 6.20251 6.77773 6.22916L6.11311 6.32586L6.59415 6.79426C6.7269 6.92353 6.78748 7.10987 6.75612 7.29248L6.64218 7.95594L7.23743 7.64292C7.40133 7.55673 7.59715 7.55673 7.76105 7.64292L8.3563 7.95594L8.24236 7.29248C8.21099 7.1098 8.27163 6.92339 8.40447 6.79412L8.88572 6.32586L8.22079 6.22916C8.03764 6.20253 7.87932 6.0875 7.79738 5.92155L7.49924 5.31775L7.20111 5.92155Z" fill="#F94C10"/>
</g>
</svg>
