<svg width="21" height="20" viewBox="0 0 21 20" fill="none" xmlns="http://www.w3.org/2000/svg">
<path d="M17.1359 0C16.1438 0 15.1518 0.358195 14.4 1.07453L2.16404 12.7268C1.93188 12.9479 1.76185 13.2228 1.67171 13.5247L0.0316784 18.994C-0.00876793 19.1293 -0.0105149 19.2725 0.0266182 19.4087C0.0637513 19.5449 0.138416 19.6692 0.242889 19.7687C0.347362 19.8682 0.47785 19.9393 0.620855 19.9746C0.76386 20.01 0.914189 20.0083 1.05629 19.9698L6.80018 18.4079L6.80126 18.4069C7.11609 18.3207 7.40409 18.1608 7.63693 17.939L19.8718 6.28575C21.3761 4.85316 21.3761 2.50712 19.8718 1.07453C19.12 0.358195 18.128 0 17.1359 0ZM17.1359 1.57015C17.7002 1.57015 18.2637 1.77723 18.6982 2.19122H18.6993C19.5699 3.02034 19.5699 4.33994 18.6993 5.16906L17.6272 6.19012L14.5004 3.21228L15.5726 2.19122C16.007 1.77723 16.5716 1.57015 17.1359 1.57015ZM13.3279 4.32897L16.4547 7.30681L6.46332 16.8223C6.43091 16.853 6.38986 16.8765 6.34347 16.8892L2.03556 18.0614L3.26639 13.9576V13.9566C3.27907 13.9141 3.30229 13.8761 3.33657 13.8435L13.3279 4.32897Z" fill="#191D88" fill-opacity="0.5"/>
</svg>
